<svg width="70" height="83" viewBox="0 0 70 83" fill="none" xmlns="http://www.w3.org/2000/svg">
<path d="M65.0005 58.6188C60.0005 48.7625 55.0005 50.3188 49.5005 49.8C50.0005 51.3563 50.0005 52.9125 50.0005 54.9875C58.0005 57.0625 60.0005 66.9187 60.0005 72.625V77.8125H50.0005V72.625H55.0005C55.0005 72.625 55.0005 59.6562 47.5005 59.6562C40.0005 59.6562 40.0005 72.1062 40.0005 72.625H45.0005V77.8125H35.0005V72.625C35.0005 66.9187 37.0005 56.5438 45.0005 54.9875C45.0005 51.875 44.5005 49.2812 44.0005 48.2438C43.0005 47.725 42.0005 46.6875 42.0005 45.1312C42.0005 42.0187 46.0005 43.0562 49.0005 37.35C49.0005 37.35 53.5005 25.4188 52.0005 15.0438H47.0005C47.0005 14.0063 47.5005 13.4875 47.5005 12.45C47.5005 11.4125 47.5005 10.8938 47.0005 9.85625H51.0005C49.5005 4.66875 44.5005 0 35.0005 0C25.5005 0 20.5005 4.66875 18.5005 10.375H22.5005C22.5005 11.4125 22.0005 11.9312 22.0005 12.9688C22.0005 14.0063 22.0005 14.525 22.5005 15.5625H17.5005C16.5005 25.9375 20.5005 37.8688 20.5005 37.8688C23.5005 43.0563 27.5005 42.0187 27.5005 45.65C27.5005 48.2438 25.0005 49.2813 22.0005 49.8C21.0005 50.8375 20.0005 52.9125 20.0005 57.0625V63.2875C23.0005 64.325 25.0005 67.4375 25.0005 70.55C25.0005 74.1813 21.5005 77.8125 17.5005 77.8125C13.5005 77.8125 10.0005 74.1813 10.0005 70.0312C10.0005 66.4 12.0005 63.8063 15.0005 62.7688V56.5437C15.0005 53.95 15.5005 51.875 16.0005 49.8C12.5005 50.3188 8.50049 51.875 5.00049 58.6188C2.00049 64.325 0.500488 83 0.500488 83H69.0005C69.5005 83 68.0005 64.325 65.0005 58.6188ZM27.5005 12.9688C27.5005 8.81875 31.0005 5.1875 35.0005 5.1875C39.0005 5.1875 42.5005 8.81875 42.5005 12.9688C42.5005 17.1187 39.0005 20.75 35.0005 20.75C31.0005 20.75 27.5005 17.1187 27.5005 12.9688Z" fill="#FDCB5A"/>
</svg>
