<svg width="73" height="83" viewBox="0 0 73 83" fill="none" xmlns="http://www.w3.org/2000/svg">
<path d="M73 79.7578V83H0V79.7578C0 78.6835 0.875511 77.8125 1.95536 77.8125H5.21429V19.4531C5.21429 17.3044 6.96515 15.5625 9.125 15.5625H23.4643V3.89062C23.4643 1.74187 25.2151 0 27.375 0H45.625C47.7849 0 49.5357 1.74187 49.5357 3.89062V15.5625H63.875C66.0349 15.5625 67.7857 17.3044 67.7857 19.4531V77.8125H71.0446C72.1245 77.8125 73 78.6835 73 79.7578ZM50.1875 31.125H43.6696C42.5898 31.125 41.7143 31.996 41.7143 33.0703V39.5547C41.7143 40.629 42.5898 41.5 43.6696 41.5H50.1875C51.2673 41.5 52.1429 40.629 52.1429 39.5547V33.0703C52.1429 31.996 51.2673 31.125 50.1875 31.125ZM22.8125 41.5H29.3304C30.4102 41.5 31.2857 40.629 31.2857 39.5547V33.0703C31.2857 31.996 30.4102 31.125 29.3304 31.125H22.8125C21.7327 31.125 20.8571 31.996 20.8571 33.0703V39.5547C20.8571 40.629 21.7327 41.5 22.8125 41.5ZM39.7589 62.25H33.2411C32.1612 62.25 31.2857 63.121 31.2857 64.1953V77.8125H41.7143V64.1953C41.7143 63.121 40.8388 62.25 39.7589 62.25ZM50.1875 46.6875H43.6696C42.5898 46.6875 41.7143 47.5585 41.7143 48.6328V55.1172C41.7143 56.1915 42.5898 57.0625 43.6696 57.0625H50.1875C51.2673 57.0625 52.1429 56.1915 52.1429 55.1172V48.6328C52.1429 47.5585 51.2673 46.6875 50.1875 46.6875ZM31.2857 48.6328C31.2857 47.5585 30.4102 46.6875 29.3304 46.6875H22.8125C21.7327 46.6875 20.8571 47.5585 20.8571 48.6328V55.1172C20.8571 56.1915 21.7327 57.0625 22.8125 57.0625H29.3304C30.4102 57.0625 31.2857 56.1915 31.2857 55.1172V48.6328ZM29.6562 15.5625H33.8929V19.7773C33.8929 20.0353 33.9959 20.2827 34.1792 20.4651C34.3626 20.6475 34.6112 20.75 34.8705 20.75H38.1295C38.3888 20.75 38.6374 20.6475 38.8208 20.4651C39.0041 20.2827 39.1071 20.0353 39.1071 19.7773V15.5625H43.3438C43.603 15.5625 43.8517 15.46 44.0351 15.2776C44.2184 15.0952 44.3214 14.8478 44.3214 14.5898V11.3477C44.3214 11.0897 44.2184 10.8423 44.0351 10.6599C43.8517 10.4775 43.603 10.375 43.3438 10.375H39.1071V6.16016C39.1071 5.90219 39.0041 5.65479 38.8208 5.47238C38.6374 5.28998 38.3888 5.1875 38.1295 5.1875H34.8705C34.6112 5.1875 34.3626 5.28998 34.1792 5.47238C33.9959 5.65479 33.8929 5.90219 33.8929 6.16016V10.375H29.6562C29.397 10.375 29.1483 10.4775 28.9649 10.6599C28.7816 10.8423 28.6786 11.0897 28.6786 11.3477V14.5898C28.6786 14.8478 28.7816 15.0952 28.9649 15.2776C29.1483 15.46 29.397 15.5625 29.6562 15.5625Z" fill="#FDCB5A"/>
</svg>
