<svg width="21" height="16" viewBox="0 0 21 16" fill="none" xmlns="http://www.w3.org/2000/svg">
<path d="M20.7999 13.3998V2.5998C20.7999 1.6038 19.9959 0.799805 18.9999 0.799805H2.18794C1.19194 0.799805 0.387939 1.6038 0.387939 2.5998V13.3998C0.387939 14.3958 1.19194 15.1998 2.18794 15.1998H18.9999C19.9959 15.1998 20.7999 14.3958 20.7999 13.3998ZM19.2279 2.4678C19.6239 2.8638 19.4079 3.2718 19.1919 3.4758L14.3199 7.9398L18.9999 12.8118C19.1439 12.9798 19.2399 13.2438 19.0719 13.4238C18.9159 13.6158 18.5559 13.6038 18.3999 13.4838L13.1559 9.0078L10.5879 11.3478L8.03194 9.0078L2.78794 13.4838C2.63194 13.6038 2.27194 13.6158 2.11594 13.4238C1.94794 13.2438 2.04394 12.9798 2.18794 12.8118L6.86794 7.9398L1.99594 3.4758C1.77994 3.2718 1.56394 2.8638 1.95994 2.4678C2.35594 2.0718 2.76394 2.2638 3.09994 2.5518L10.5879 8.5998L18.0879 2.5518C18.4239 2.2638 18.8319 2.0718 19.2279 2.4678Z" fill="#1A3150"/>
</svg>
