<svg width="18" height="20" viewBox="0 0 18 20" fill="none" xmlns="http://www.w3.org/2000/svg">
<path fill-rule="evenodd" clip-rule="evenodd" d="M3.0001 8.7999V6.3999C3.0001 4.8086 3.63224 3.28248 4.75746 2.15726C5.88268 1.03204 7.4088 0.399902 9.0001 0.399902C10.5914 0.399902 12.1175 1.03204 13.2427 2.15726C14.368 3.28248 15.0001 4.8086 15.0001 6.3999V8.7999C15.6366 8.7999 16.2471 9.05276 16.6972 9.50285C17.1472 9.95293 17.4001 10.5634 17.4001 11.1999V17.1999C17.4001 17.8364 17.1472 18.4469 16.6972 18.897C16.2471 19.347 15.6366 19.5999 15.0001 19.5999H3.0001C2.36358 19.5999 1.75313 19.347 1.30304 18.897C0.852954 18.4469 0.600098 17.8364 0.600098 17.1999V11.1999C0.600098 10.5634 0.852954 9.95293 1.30304 9.50285C1.75313 9.05276 2.36358 8.7999 3.0001 8.7999ZM12.6001 6.3999V8.7999H5.4001V6.3999C5.4001 5.44512 5.77938 4.52945 6.45451 3.85432C7.12964 3.17919 8.04532 2.7999 9.0001 2.7999C9.95488 2.7999 10.8706 3.17919 11.5457 3.85432C12.2208 4.52945 12.6001 5.44512 12.6001 6.3999Z" fill="#1A3150"/>
</svg>
