<svg width="24" height="24" viewBox="0 0 24 24" fill="none" xmlns="http://www.w3.org/2000/svg">
<path fill-rule="evenodd" clip-rule="evenodd" d="M3.40058 1.46984C3.64658 1.22381 3.94208 1.0329 4.26748 0.909778C4.59289 0.786655 4.94075 0.734133 5.288 0.755694C5.63524 0.777255 5.97394 0.872407 6.28161 1.03484C6.58928 1.19727 6.8589 1.42327 7.07258 1.69784L9.59408 4.94084C10.0576 5.53484 10.2211 6.31034 10.0381 7.04084L9.26858 10.1203C9.22856 10.2801 9.2306 10.4476 9.2745 10.6063C9.31839 10.7651 9.40266 10.9098 9.51908 11.0263L12.9751 14.4808C13.0916 14.5973 13.2363 14.6815 13.3951 14.7254C13.5539 14.7693 13.7213 14.7714 13.8811 14.7313L16.9591 13.9618C17.3201 13.8717 17.6969 13.8648 18.061 13.9417C18.4251 14.0186 18.7669 14.1773 19.0606 14.4058L22.3036 16.9273C23.4691 17.8333 23.5771 19.5568 22.5331 20.5993L21.0781 22.0543C20.0386 23.0938 18.4831 23.5513 17.0326 23.0413C13.3222 21.7354 9.95341 19.6108 7.17608 16.8253C4.39004 14.0482 2.265 10.6794 0.958576 6.96884C0.448576 5.51834 0.906076 3.96284 1.94558 2.92184L3.40058 1.46834V1.46984Z" fill="#1A3150"/>
</svg>
