<svg width="69" height="79" viewBox="0 0 69 79" fill="none" xmlns="http://www.w3.org/2000/svg">
<path d="M64.1254 55.7938C59.1879 46.4125 54.2504 47.8938 48.8191 47.4C49.3129 48.8813 49.3129 50.3625 49.3129 52.3375C57.2129 54.3125 59.1879 63.6937 59.1879 69.125V74.0625H49.3129V69.125H54.2504C54.2504 69.125 54.2504 56.7812 46.8441 56.7812C39.4379 56.7812 39.4379 68.6312 39.4379 69.125H44.3754V74.0625H34.5004V69.125C34.5004 63.6937 36.4754 53.8188 44.3754 52.3375C44.3754 49.375 43.8816 46.9062 43.3879 45.9188C42.4004 45.425 41.4129 44.4375 41.4129 42.9562C41.4129 39.9937 45.3629 40.9813 48.3254 35.55C48.3254 35.55 52.7691 24.1938 51.2879 14.3188H46.3504C46.3504 13.3313 46.8441 12.8375 46.8441 11.85C46.8441 10.8625 46.8441 10.3687 46.3504 9.38125H50.3004C48.8191 4.44375 43.8816 0 34.5004 0C25.1191 0 20.1816 4.44375 18.2066 9.875H22.1566C22.1566 10.8625 21.6629 11.3562 21.6629 12.3438C21.6629 13.3313 21.6629 13.825 22.1566 14.8125H17.2191C16.2316 24.6875 20.1816 36.0438 20.1816 36.0438C23.1441 40.9813 27.0941 39.9938 27.0941 43.45C27.0941 45.9188 24.6254 46.9062 21.6629 47.4C20.6754 48.3875 19.6879 50.3625 19.6879 54.3125V60.2375C22.6504 61.225 24.6254 64.1875 24.6254 67.15C24.6254 70.6063 21.1691 74.0625 17.2191 74.0625C13.2691 74.0625 9.81289 70.6062 9.81289 66.6562C9.81289 63.2 11.7879 60.7313 14.7504 59.7438V53.8187C14.7504 51.35 15.2441 49.375 15.7379 47.4C12.2816 47.8938 8.33164 49.375 4.87539 55.7938C1.91289 61.225 0.431641 79 0.431641 79H68.0754C68.5691 79 67.0879 61.225 64.1254 55.7938ZM27.0941 12.3438C27.0941 8.39375 30.5504 4.9375 34.5004 4.9375C38.4504 4.9375 41.9066 8.39375 41.9066 12.3438C41.9066 16.2938 38.4504 19.75 34.5004 19.75C30.5504 19.75 27.0941 16.2938 27.0941 12.3438Z" fill="#FDCB5A"/>
</svg>
